<svg width="22" height="16" viewBox="0 0 22 16" fill="none" xmlns="http://www.w3.org/2000/svg">
<path d="M20.6316 0H10.807H0.98247C0.439881 0 0 0.43988 0 0.98247V15.0175C0 15.5601 0.439881 16 0.98247 16H10.807H20.6316C21.1742 16 21.6141 15.5601 21.6141 15.0175V0.98247C21.6141 0.43988 21.1742 0 20.6316 0Z" fill="#5286F9"/>
<path d="M11.5579 5.2042C11.7738 5.45158 11.9619 5.72387 12.1166 6.0165C12.4302 6.60924 12.6087 7.28405 12.6087 8.00002C12.6087 8.71599 12.4302 9.39071 12.1166 9.98353C11.9619 10.2762 11.7738 10.5484 11.5579 10.7958C11.3357 11.0503 11.0838 11.2781 10.8075 11.4741C11.5021 11.9665 12.3493 12.2573 13.2636 12.2573C15.6111 12.2573 17.521 10.3475 17.521 8.00002C17.521 5.65257 15.6111 3.74268 13.2636 3.74268C12.3493 3.74268 11.5021 4.03337 10.8075 4.52589C11.0837 4.72185 11.3356 4.94969 11.5579 5.2042Z" fill="#FFB655"/>
<path d="M12.1169 6.01642C11.9622 5.7237 11.7741 5.4515 11.5582 5.20412C11.3358 4.94952 11.0841 4.72181 10.8078 4.52589C10.1132 4.03337 9.26593 3.74268 8.3516 3.74268C6.00411 3.74268 4.0943 5.65253 4.0943 7.99998C4.0943 10.3474 6.00415 12.2573 8.3516 12.2573C9.26593 12.2573 10.1132 11.9665 10.8078 11.4741C11.0841 11.2781 11.3359 11.0503 11.5582 10.7958C11.7741 10.5484 11.9622 10.2761 12.1169 9.98357C12.4305 9.39075 12.6089 8.71594 12.6089 8.00006C12.6089 7.28392 12.4305 6.60916 12.1169 6.01642Z" fill="#D8143A"/>
<path d="M8.35089 12.2574C6.0034 12.2574 4.09359 10.3476 4.09359 8.00013C4.09359 5.65268 6.00344 3.74283 8.35089 3.74283C9.26523 3.74283 10.1124 4.03352 10.807 4.52604V0H0.98247C0.439881 0 0 0.43988 0 0.98247V15.0175C0 15.5601 0.439881 16 0.98247 16H10.807V11.4741C10.1124 11.9666 9.26523 12.2574 8.35089 12.2574Z" fill="#3D6DEB"/>
</svg>
