<svg width="15" height="15" viewBox="0 0 15 15" fill="none" xmlns="http://www.w3.org/2000/svg">
<path d="M13.1555 0.0501709C13.3022 0.0501709 13.4628 0.0716484 13.6018 0.127319C13.6709 0.155009 13.7366 0.190884 13.7991 0.231812L13.9768 0.367554L13.9788 0.369507C14.0828 0.469506 14.1626 0.600602 14.219 0.729858L14.2629 0.833374C14.2991 0.938701 14.3118 1.04932 14.3118 1.16345C14.3117 1.30811 14.277 1.45191 14.22 1.58337C14.1619 1.71709 14.0701 1.83818 13.9573 1.94666L8.57251 7.12048L9.5647 8.06384H9.56567L13.9573 12.2963L13.9583 12.2972C14.1636 12.5057 14.2787 12.781 14.2678 13.0687C14.2678 13.3567 14.1522 13.6224 13.9348 13.8314C13.7287 14.0295 13.4427 14.1508 13.1448 14.1508C12.849 14.1508 12.5623 14.0517 12.344 13.8529L12.343 13.8519L6.14478 7.89392C6.04095 7.79412 5.96062 7.67293 5.90356 7.54138C5.84656 7.40988 5.81179 7.26616 5.81177 7.12146C5.81177 6.97658 5.84617 6.83276 5.90259 6.69177L5.90356 6.6908C5.96062 6.55924 6.04095 6.43807 6.14478 6.33826L12.343 0.379272C12.4453 0.280933 12.5718 0.193507 12.7102 0.138062L12.7112 0.137085C12.8574 0.0830144 13.0058 0.0502023 13.1555 0.0501709Z" fill="#B3B3B3" stroke="#B3B3B3" stroke-width="0.1"/>
<path d="M1.2063 14.1504C1.05964 14.1504 0.89902 14.1289 0.76001 14.0732C0.690943 14.0456 0.625212 14.0097 0.562744 13.9687L0.38501 13.833L0.383057 13.8311C0.279038 13.7311 0.199183 13.6 0.142822 13.4707L0.098877 13.3672C0.0627492 13.2619 0.0500489 13.1512 0.0500489 13.0371C0.0500932 12.8925 0.0848566 12.7486 0.141846 12.6172C0.199874 12.4835 0.291707 12.3624 0.404541 12.2539L5.78931 7.08008L4.79712 6.13672L4.79614 6.13672L0.404542 1.9043L0.403566 1.90332C0.198236 1.69486 0.0831117 1.41957 0.0939953 1.13184C0.0939953 0.843905 0.209568 0.578128 0.427003 0.36914C0.633155 0.171108 0.919087 0.049804 1.21704 0.0498041C1.51278 0.0498047 1.79949 0.148852 2.01782 0.347656L2.0188 0.348632L8.21704 6.30664C8.32087 6.40644 8.40119 6.52763 8.45825 6.65918C8.51526 6.79068 8.55002 6.9344 8.55005 7.0791C8.55005 7.22398 8.51565 7.36781 8.45923 7.50879L8.45825 7.50977C8.4012 7.64132 8.32086 7.76249 8.21704 7.8623L2.0188 13.8213C1.91648 13.9196 1.79006 14.0071 1.65161 14.0625L1.65063 14.0635C1.50437 14.1175 1.35601 14.1504 1.2063 14.1504Z" fill="#B3B3B3" stroke="#B3B3B3" stroke-width="0.1"/>
</svg>
