<svg width="55" height="64" viewBox="0 0 55 64" fill="none" xmlns="http://www.w3.org/2000/svg">
<path fill-rule="evenodd" clip-rule="evenodd" d="M37.1988 4.94701C37.4719 2.50757 35.7424 0.304789 33.303 0.0317174C30.8635 -0.259559 28.6608 1.4881 28.3877 3.92754C28.06 6.71287 28.5151 10.0443 29.0977 13.4668C30.7179 13.9584 32.2835 14.6684 33.7399 15.5058C35.3055 11.8102 36.8347 8.15105 37.1988 4.94701ZM54.3295 15.6514C53.3646 13.394 50.7432 12.3746 48.4858 13.3394C45.5184 14.632 42.4418 17.1624 39.347 19.7657C40.5121 20.9126 41.6044 22.2051 42.5328 23.6069C46.0463 23.17 49.4142 22.6421 52.0175 21.5134C54.2749 20.5121 55.3126 17.8906 54.3295 15.6514ZM46.8473 3.74549C44.8812 2.28911 42.0959 2.68961 40.6395 4.65573C38.4185 7.64131 36.9257 12.1015 35.3055 16.4524C35.8516 16.8165 36.3614 17.1806 36.8529 17.5629C37.217 17.8542 37.5993 18.1637 37.9816 18.4732C41.6954 15.6696 45.5548 12.9389 47.7758 9.95332C49.2322 7.98721 48.8134 5.20187 46.8473 3.74549Z" fill="white"/>
<path d="M38.4004 39.3905C37.035 40.865 35.5786 42.2304 34.0312 43.5594C31.8649 45.4344 29.6621 47.2549 27.4229 49.0026C25.0199 47.528 23.2904 46.7816 22.9991 47.1639C22.7443 47.5098 23.7455 48.7841 25.5478 50.4408C19.5038 54.9373 13.1139 58.906 6.25073 62.1646C5.17665 62.6744 4.04795 63.0385 2.93746 63.439C2.64618 63.5482 2.3367 63.5482 2.20927 63.5664C0.461608 63.7667 -0.0663309 63.2933 0.00648821 61.6913C0.224946 56.7032 1.77235 52.0246 3.37437 47.3642C3.81129 46.0898 4.26641 44.8155 4.73973 43.5411C7.16097 45.0157 8.89042 45.7803 9.1817 45.398C9.49118 44.9793 8.0348 43.3045 5.59536 41.2109C7.34301 36.6961 9.29093 32.2542 11.5847 27.9943C16.1723 31.3986 20.2502 33.6377 20.7053 33.0188C21.1604 32.3998 17.7926 29.1048 13.1503 25.6641L12.9501 25.5184C13.7511 24.1531 14.5885 22.7877 15.4806 21.4587C16.591 19.7839 17.9564 18.2547 19.3036 16.7619C21.1058 14.7776 23.436 14.104 26.0393 14.6866C34.3771 16.5435 40.1662 21.3313 42.897 29.5417C43.4431 31.2165 42.9516 32.8549 42.0959 34.3659C41.5134 35.3854 40.8762 36.3503 40.1662 37.2605C35.7607 34.0383 31.9377 31.9629 31.5008 32.5455C31.082 33.128 34.1222 36.1318 38.4004 39.3905Z" fill="white"/>
</svg>
